<?xml version="1.0" standalone="no"?>
<!DOCTYPE svg PUBLIC "-//W3C//DTD SVG 20010904//EN"
 "http://www.w3.org/TR/2001/REC-SVG-20010904/DTD/svg10.dtd">
<svg version="1.0" xmlns="http://www.w3.org/2000/svg"
 width="1309.000000pt" height="300.000000pt" viewBox="0 0 1309.000000 300.000000"
 preserveAspectRatio="xMidYMid meet">

<g transform="translate(0.000000,300.000000) scale(0.100000,-0.100000)"
fill="#000000" stroke="none">
<path d="M530 2460 l0 -160 -165 0 -165 0 0 -165 0 -165 165 0 165 0 0 165 0
165 485 0 485 0 0 -325 0 -325 -162 -2 -163 -3 -3 -162 -2 -163 -160 0 -160 0
0 -160 0 -160 -160 0 -160 0 -2 -162 -3 -163 -162 -3 -163 -2 0 -160 0 -160
815 0 815 0 0 160 0 160 -487 2 -488 3 -3 163 -2 162 165 0 165 0 0 160 0 160
160 0 160 0 0 165 0 165 165 0 165 0 -2 323 -3 322 -162 3 -163 2 0 160 0 160
-485 0 -485 0 0 -160z"/>
<path d="M2800 2460 l0 -160 -162 -2 -163 -3 0 -160 0 -160 163 -3 162 -2 0
-645 0 -645 -325 0 -325 0 0 -165 0 -165 810 0 810 0 0 165 0 165 -325 0 -325
0 0 970 0 970 -160 0 -160 0 0 -160z"/>
<path d="M10260 2460 l0 -160 160 0 160 0 0 -975 0 -975 165 0 165 0 0 1135 0
1135 -325 0 -325 0 0 -160z"/>
<path d="M12530 2295 l0 -325 -485 0 -485 0 0 -160 0 -160 -165 0 -165 0 2
-487 3 -488 160 0 160 0 3 488 2 487 485 0 485 0 0 -325 0 -325 -160 0 -160 0
0 -160 0 -160 -325 0 -325 0 0 -165 0 -165 325 0 325 0 0 160 0 160 160 0 160
0 0 -160 0 -160 165 0 165 0 0 1135 0 1135 -165 0 -165 0 0 -325z"/>
<path d="M4092 1323 l3 -648 163 -3 162 -2 0 -160 0 -160 325 0 325 0 0 160 0
160 160 0 160 0 0 -160 0 -160 325 0 325 0 0 160 0 160 163 2 162 3 3 648 2
647 -165 0 -165 0 0 -650 0 -650 -322 2 -323 3 -3 648 -2 647 -160 0 -160 0 0
-650 0 -650 -325 0 -325 0 0 650 0 650 -165 0 -165 0 2 -647z"/>
<path d="M7020 1810 l0 -160 -165 0 -165 0 2 -487 3 -488 160 0 160 0 3 488 2
487 485 0 485 0 0 -490 0 -490 160 0 160 0 0 490 0 490 -160 0 -160 0 0 160 0
160 -485 0 -485 0 0 -160z"/>
<path d="M8640 1160 l0 -810 160 0 160 0 0 485 0 485 163 2 162 3 3 163 2 162
325 0 325 0 0 160 0 160 -325 0 -325 0 0 -160 0 -160 -165 0 -165 0 0 160 0
160 -160 0 -160 0 0 -810z"/>
<path d="M7020 515 l0 -165 485 0 485 0 -2 163 -3 162 -482 3 -483 2 0 -165z"/>
</g>
</svg>
